<svg width="24" height="24" viewBox="0 0 24 24" fill="none" xmlns="http://www.w3.org/2000/svg">
<g clip-path="url(#clip0_43_464)">
<path d="M21.792 18.7042C21.429 19.5427 20.9994 20.3145 20.5016 21.0242C19.8231 21.9915 19.2676 22.6611 18.8395 23.033C18.1758 23.6433 17.4647 23.9559 16.7032 23.9737C16.1566 23.9737 15.4973 23.8181 14.73 23.5026C13.9601 23.1885 13.2525 23.033 12.6056 23.033C11.9271 23.033 11.1994 23.1885 10.4211 23.5026C9.64153 23.8181 9.01355 23.9826 8.53342 23.9989C7.80322 24.03 7.07539 23.7085 6.3489 23.033C5.88521 22.6285 5.30523 21.9352 4.61043 20.953C3.86498 19.9042 3.25211 18.6879 2.77198 17.3013C2.25777 15.8036 2 14.3532 2 12.9491C2 11.3407 2.34754 9.95352 3.04367 8.79104C3.59076 7.85729 4.31859 7.12072 5.22953 6.57999C6.14046 6.03927 7.12473 5.76372 8.18469 5.74609C8.76467 5.74609 9.52524 5.9255 10.4704 6.27808C11.4129 6.63185 12.0181 6.81125 12.2834 6.81125C12.4817 6.81125 13.154 6.60148 14.2937 6.18327C15.3714 5.79543 16.281 5.63484 17.0262 5.6981C19.0454 5.86105 20.5624 6.65703 21.5712 8.09106C19.7654 9.18525 18.8721 10.7178 18.8898 12.6838C18.9061 14.2152 19.4617 15.4895 20.5535 16.5013C21.0483 16.9709 21.6009 17.3339 22.2156 17.5917C22.0823 17.9783 21.9416 18.3487 21.792 18.7042ZM17.161 0.481068C17.161 1.68134 16.7225 2.80203 15.8484 3.83934C14.7937 5.07248 13.5179 5.78506 12.1343 5.67262C12.1167 5.52862 12.1065 5.37707 12.1065 5.21781C12.1065 4.06555 12.6081 2.8324 13.4989 1.82414C13.9436 1.31363 14.5092 0.889159 15.1951 0.550546C15.8796 0.216986 16.5269 0.0325198 17.1358 0.000930786C17.1536 0.161389 17.161 0.321857 17.161 0.481052V0.481068Z" fill="#0A0A0A"/>
</g>
<defs>
<clipPath id="clip0_43_464">
<rect width="24" height="24" fill="white" transform="translate(0 0.000671387)"/>
</clipPath>
</defs>
</svg>
