<svg width="24" height="24" viewBox="0 0 24 24" fill="none" xmlns="http://www.w3.org/2000/svg">
<g clip-path="url(#clip0_43_451)">
<path fill-rule="evenodd" clip-rule="evenodd" d="M12.0099 0.000671387C5.36875 0.000671387 0 5.409 0 12.0998C0 17.4482 3.43994 21.9754 8.21205 23.5778C8.80869 23.6982 9.02724 23.3174 9.02724 22.9971C9.02724 22.7166 9.00757 21.7552 9.00757 20.7534C5.6667 21.4747 4.97099 19.3111 4.97099 19.3111C4.43409 17.9089 3.63858 17.5485 3.63858 17.5485C2.54511 16.8073 3.71823 16.8073 3.71823 16.8073C4.93117 16.8874 5.56763 18.0492 5.56763 18.0492C6.64118 19.892 8.37111 19.3713 9.06706 19.0508C9.16638 18.2695 9.48473 17.7287 9.82275 17.4283C7.15817 17.1478 4.35469 16.1062 4.35469 11.4587C4.35469 10.1366 4.8316 9.05495 5.58729 8.21371C5.46807 7.9133 5.0504 6.67111 5.70677 5.00854C5.70677 5.00854 6.72083 4.68797 9.00732 6.25049C9.98625 5.98564 10.9958 5.85091 12.0099 5.84978C13.024 5.84978 14.0577 5.99015 15.0123 6.25049C17.299 4.68797 18.3131 5.00854 18.3131 5.00854C18.9695 6.67111 18.5515 7.9133 18.4323 8.21371C19.2079 9.05495 19.6652 10.1366 19.6652 11.4587C19.6652 16.1062 16.8617 17.1276 14.1772 17.4283C14.6148 17.8088 14.9924 18.5298 14.9924 19.6717C14.9924 21.2942 14.9727 22.5964 14.9727 22.9969C14.9727 23.3174 15.1915 23.6982 15.7879 23.578C20.56 21.9752 23.9999 17.4482 23.9999 12.0998C24.0196 5.409 18.6312 0.000671387 12.0099 0.000671387Z" fill="#0A0A0A"/>
</g>
<defs>
<clipPath id="clip0_43_451">
<rect width="24" height="24" fill="white" transform="translate(0 0.000671387)"/>
</clipPath>
</defs>
</svg>
