<svg width="24" height="24" viewBox="0 0 24 24" fill="none" xmlns="http://www.w3.org/2000/svg">
<g clip-path="url(#clip0_43_481)">
<path d="M23.4059 10.1514L23.2848 9.63764H12.1184V14.3637H18.7902C18.0975 17.653 14.8832 19.3844 12.2577 19.3844C10.3473 19.3844 8.33357 18.5809 7.00071 17.2892C6.2975 16.5969 5.73774 15.7727 5.3535 14.8637C4.96925 13.9547 4.76805 12.9789 4.76143 11.9921C4.76143 10.0014 5.65607 8.01014 6.95786 6.70031C8.25964 5.39049 10.2257 4.65764 12.1805 4.65764C14.4193 4.65764 16.0238 5.84639 16.6238 6.38853L19.9821 3.04781C18.997 2.1821 16.2905 0.000671387 12.0723 0.000671387C8.81786 0.000671387 5.69732 1.24728 3.41625 3.52085C1.16518 5.7596 0 8.99692 0 12.0007C0 15.0044 1.1025 18.08 3.28393 20.3364C5.61482 22.7428 8.91589 24.0007 12.315 24.0007C15.4077 24.0007 18.3391 22.7889 20.4284 20.5903C22.4823 18.426 23.5446 15.4314 23.5446 12.2921C23.5446 10.9705 23.4118 10.1857 23.4059 10.1514Z" fill="#0A0A0A"/>
</g>
<defs>
<clipPath id="clip0_43_481">
<rect width="24" height="24" fill="white" transform="translate(0 0.000671387)"/>
</clipPath>
</defs>
</svg>
