<svg width="36" height="36" viewBox="0 0 36 36" fill="none" xmlns="http://www.w3.org/2000/svg">
<path d="M18.0364 0.000463365C19.9844 -0.0131741 21.9393 0.273227 23.7344 0.990748C23.7885 1.01211 23.8426 1.03347 23.8983 1.05547C25.4723 1.68631 26.8072 2.57877 28.0745 3.64552C28.1975 3.74746 28.1975 3.74746 28.3524 3.85108C28.4962 3.95359 28.4962 3.95359 28.6237 4.1035C28.7761 4.28029 28.9306 4.42751 29.1055 4.58408C29.5127 4.96039 29.8586 5.37228 30.2038 5.7979C30.3079 5.92603 30.4132 6.05321 30.5186 6.18041C31.4719 7.346 32.378 8.71459 32.7979 10.1367C32.8221 10.2168 32.8463 10.2969 32.8712 10.3794C32.917 10.5366 32.9594 10.6948 32.9978 10.8537C33.0618 11.075 33.1179 11.2425 33.2579 11.4313C33.487 11.531 33.6885 11.5733 33.9384 11.6062C34.5295 11.702 35.0937 12.1182 35.4498 12.56C35.9281 13.3286 36.1001 13.983 35.944 14.8755C35.7279 15.6313 35.2187 16.1985 34.5192 16.6143C33.8775 16.9435 33.2591 17.0456 32.5398 16.9293C32.2178 16.8985 32.0919 16.9067 31.8194 17.0764C31.6206 17.2422 31.4383 17.4228 31.255 17.6033C30.9271 17.9108 30.5316 18.1568 30.159 18.4151C30.0796 18.4706 30.0796 18.4706 29.9986 18.5273C28.7473 19.4023 27.4565 20.2197 26.1531 21.0252C27.0043 21.542 27.8585 22.0538 28.7194 22.5565C28.8546 22.6363 28.9885 22.718 29.1221 22.8001C29.1883 22.84 29.2546 22.88 29.3228 22.9211C29.3765 22.9544 29.4302 22.9877 29.4855 23.022C29.6309 23.0872 29.6309 23.0872 29.7825 23.0228C29.9841 22.8977 30.1693 22.7583 30.3562 22.6149C31.0245 22.2144 31.8082 22.1905 32.5776 22.295C33.3106 22.4788 33.8692 22.8959 34.2579 23.497C34.6692 24.2149 34.7471 24.9798 34.5097 25.7649C34.2598 26.3938 33.7105 26.9095 33.0981 27.2518C32.3948 27.5457 31.5688 27.5555 30.8392 27.3301C30.1113 27.0398 29.5305 26.5679 29.2284 25.8795C29.0755 25.4972 29.0161 25.1928 29.0205 24.7817C29.0212 24.6991 29.0219 24.6166 29.0226 24.5315C29.0239 24.4371 29.0239 24.4371 29.0252 24.3408C28.9504 24.3175 28.8756 24.2942 28.7985 24.2703C28.6969 24.1769 28.5962 24.0828 28.4962 23.9881C28.3769 23.9078 28.2551 23.8306 28.1315 23.7563C28.0251 23.692 28.0251 23.692 27.9165 23.6263C27.8412 23.5813 27.7659 23.5362 27.6884 23.4899C27.5727 23.4201 27.5727 23.4201 27.4548 23.349C27.2978 23.2544 27.1408 23.16 26.9837 23.0657C26.7763 22.9411 26.5694 22.8159 26.3627 22.6905C26.2472 22.6204 26.1316 22.5503 26.0161 22.4802C25.9629 22.4479 25.9097 22.4156 25.8548 22.3824C25.4572 22.1421 25.198 22.0193 24.717 22.0834C24.1197 22.2781 23.6121 22.6518 23.1012 22.9907C22.9133 23.1138 22.7215 23.2311 22.5298 23.3488C20.1972 24.7657 20.1972 24.7657 18.9727 27.0215C18.9033 27.5116 18.8868 27.9964 18.8898 28.4902C18.8899 28.5597 18.89 28.6291 18.8901 28.7007C18.8905 28.9199 18.8914 29.1391 18.8924 29.3582C18.8928 29.508 18.8931 29.6577 18.8934 29.8074C18.8943 30.1721 18.8956 30.5367 18.8971 30.9014C18.9683 30.9225 19.0395 30.9436 19.1128 30.9654C19.7444 31.1701 20.2659 31.6783 20.596 32.2098C20.9214 32.8375 20.9951 33.5199 20.8094 34.1985C20.7394 34.3582 20.6604 34.4954 20.56 34.6402C20.5261 34.6892 20.4923 34.7382 20.4575 34.7887C19.9961 35.4042 19.3959 35.8321 18.5948 35.9805C17.8174 36.0511 17.1701 35.9378 16.5275 35.5093C16.3763 35.3904 16.2378 35.2668 16.1006 35.134C16.032 35.07 15.9634 35.006 15.8927 34.94C15.4288 34.3145 15.3128 33.6465 15.456 32.9028C15.6898 32.0678 16.2096 31.4507 16.9981 31.0116C17.2343 30.9014 17.2343 30.9014 17.3855 30.9014C17.3823 30.3756 17.3768 29.8499 17.3698 29.3242C17.3677 29.1457 17.3661 28.9672 17.365 28.7887C17.3634 28.5307 17.3598 28.2728 17.356 28.0149C17.3558 27.897 17.3558 27.897 17.3557 27.7767C17.338 26.8733 17.0565 26.1219 16.4785 25.399C16.434 25.3428 16.3894 25.2866 16.3436 25.2287C15.4759 24.2402 14.1665 23.5702 13.0252 22.8927C12.8582 22.7934 12.6917 22.6933 12.5254 22.5929C11.8417 22.1482 11.8417 22.1482 11.0365 22.0834C10.5555 22.2506 10.1278 22.542 9.70497 22.8078C9.63715 22.8501 9.56934 22.8924 9.49947 22.9359C9.28412 23.0703 9.0691 23.2051 8.85407 23.34C8.71031 23.4297 8.56652 23.5194 8.42272 23.609C8.28325 23.6961 8.14379 23.7833 8.00435 23.8704C7.90889 23.9301 7.90889 23.9301 7.81151 23.9909C7.68865 24.068 7.5661 24.1454 7.44389 24.2234C7.31196 24.3064 7.17848 24.3874 7.04397 24.4667C6.97496 24.5086 6.90595 24.5505 6.83485 24.5937C6.77182 24.6309 6.7088 24.6682 6.64386 24.7065C6.48286 24.8267 6.48286 24.8267 6.46295 25.0245C6.46681 25.1534 6.47565 25.2823 6.48827 25.4108C6.52715 25.9955 6.20178 26.5086 5.82131 26.9509C5.35525 27.3859 4.68881 27.5925 4.04039 27.6079C3.34335 27.5999 2.75676 27.4071 2.24796 26.9556C1.83859 26.4973 1.63242 25.9601 1.64388 25.3678C1.71723 24.7179 2.04877 24.2039 2.57125 23.7764C2.62113 23.7764 2.67102 23.7764 2.72242 23.7764C2.72242 23.7299 2.72242 23.6833 2.72242 23.6354C2.82935 23.5895 2.93646 23.544 3.04364 23.4987C3.10327 23.4733 3.1629 23.4479 3.22433 23.4218C3.7632 23.2145 4.38855 23.1865 4.9403 23.3639C5.09311 23.4276 5.24451 23.4945 5.3938 23.5651C5.63622 23.6499 5.72933 23.6441 5.97248 23.5648C6.14565 23.4769 6.30815 23.3867 6.47321 23.287C6.52365 23.2571 6.57409 23.2272 6.62606 23.1964C7.25172 22.8226 7.86836 22.4354 8.48505 22.0488C9.00338 21.7241 9.52545 21.4059 10.0539 21.0958C9.95418 21.0725 9.85441 21.0492 9.75162 21.0252C9.75162 20.9554 9.75162 20.8856 9.75162 20.8136C9.61473 20.7086 9.61473 20.7086 9.42566 20.6108C8.92743 20.3287 8.45055 20.0211 7.97267 19.71C7.91278 19.6713 7.85289 19.6327 7.79119 19.5929C7.7375 19.5579 7.68382 19.523 7.62851 19.4871C7.4773 19.3914 7.4773 19.3914 7.25738 19.3322C7.12984 19.2219 7.12984 19.2219 7.03064 19.1205C6.98075 19.1438 6.93087 19.1671 6.87947 19.1911C6.87947 19.1445 6.87947 19.098 6.87947 19.05C6.82959 19.0267 6.7797 19.0034 6.7283 18.9795C6.60217 18.8856 6.47625 18.7915 6.35039 18.6973C6.12543 18.5377 5.89803 18.3814 5.67015 18.2255C5.58012 18.1627 5.58012 18.1627 5.48827 18.0986C5.40059 18.0388 5.40059 18.0388 5.31113 17.9778C5.25851 17.9415 5.2059 17.9053 5.15169 17.8679C4.96852 17.7686 4.82201 17.7314 4.61199 17.7097C4.41606 17.774 4.41606 17.774 4.22935 17.8772C3.79393 18.1014 3.46463 18.1465 2.96806 18.1462C2.91407 18.1462 2.80446 18.1464 2.80446 18.1464L1.73984 17.9918C1.73984 17.9918 1.7145 17.8942 1.6631 17.9182C1.61322 17.8949 1.56333 17.8716 1.51194 17.8476C1.51194 17.7778 1.43751 17.8522 1.43751 17.7802C1.30336 17.6748 1.30336 17.6748 1.13045 17.573C0.585554 17.196 0.250593 16.6239 0.0770173 16.0166C0.04649 15.7994 0.0320465 15.5828 0.0203302 15.3641C0.0161407 15.3066 0.0114622 15.258 0.00763467 15.1899C-0.00208213 15.0171 -0.000456962 14.8945 0.00143452 14.7468C0.0762615 14.677 0.0762615 14.677 0.1526 14.6057C0.225923 14.4717 0.296413 14.3362 0.365177 14.2001C0.713507 13.5476 1.123 13.1794 1.81542 12.8421C1.94075 12.8145 2.06673 12.7892 2.19334 12.7672C2.36319 12.7265 2.36319 12.7265 2.49567 12.6305C2.58494 12.4154 2.61515 12.2055 2.65274 11.9774C3.00278 10.0637 4.06323 8.00575 5.34301 6.48353C5.45802 6.35984 5.57024 6.28617 5.55561 6.13732C5.64312 6.05326 5.61892 6.04329 5.70949 5.9621C5.90859 5.77725 6.08476 5.57377 6.26536 5.37329C6.58161 5.02547 6.90389 4.69227 7.25738 4.37686C7.34566 4.2942 7.34566 4.2942 7.43571 4.20987C8.38489 3.32659 9.42352 2.53223 10.592 1.91268C10.6933 1.85895 10.7942 1.80447 10.8947 1.74947C13.091 0.556869 15.5092 0.0346319 18.0364 0.000463365ZM16.6108 1.76232C16.5011 1.77153 16.5011 1.77153 16.3893 1.78092C15.0085 1.90074 13.593 2.23645 12.3214 2.75435C12.2664 2.77641 12.2114 2.79847 12.1547 2.82121C10.9063 3.3279 9.72715 3.96912 8.69346 4.80012C8.61197 4.86343 8.53038 4.92662 8.4487 4.98971C8.00736 5.33201 7.56978 5.67411 7.1818 6.06991C7.1818 6.11647 7.06727 6.1599 7.06727 6.20787C6.99244 6.23115 7.03215 6.25756 6.95505 6.28154C6.81578 6.43037 6.68616 6.57873 6.55824 6.73567C6.52109 6.78074 6.48393 6.82581 6.44564 6.87225C6.33758 7.00405 6.23045 7.13647 6.12364 7.26916C6.07473 7.32945 6.02582 7.38974 5.97543 7.45186C4.90695 8.82131 3.61217 11.039 3.70499 12.7716C3.75517 12.7938 3.80535 12.816 3.85704 12.8388C4.75561 13.2453 5.31473 13.8015 5.65184 14.6854C5.82675 15.296 5.73161 16.0561 5.51898 16.6515C5.66861 16.7976 5.81877 16.9179 5.99787 17.0312C6.04672 17.0623 6.09557 17.0935 6.1459 17.1255C6.22374 17.1746 6.22374 17.1746 6.30315 17.2247C6.41181 17.2937 6.52046 17.3628 6.6291 17.4319C6.68357 17.4665 6.73803 17.501 6.79414 17.5366C7.11454 17.7407 7.43225 17.9484 7.75044 18.1555C7.92722 18.273 7.92722 18.273 8.08879 18.3446C8.18846 18.4062 8.28735 18.4689 8.38581 18.5322C8.44545 18.5705 8.50508 18.6087 8.56652 18.6481C8.63023 18.6891 8.69395 18.73 8.75959 18.7722C9.31419 19.1276 9.87117 19.4791 10.4319 19.826C10.654 19.964 10.8759 20.1022 11.0979 20.2404C11.2154 20.3135 11.3329 20.3867 11.4505 20.4598C11.9119 20.7469 11.9119 20.7469 12.3734 21.034C12.4138 21.0592 12.4542 21.0843 12.4958 21.1102C12.7239 21.2522 12.952 21.3941 13.1801 21.5361C13.4195 21.6851 13.6589 21.8341 13.8984 21.983C14.0071 22.0506 14.1158 22.1182 14.2245 22.1859C14.5661 22.3985 14.9082 22.6106 15.2507 22.8221C15.3683 22.8948 15.4857 22.9677 15.6031 23.0408C15.7758 23.1483 15.9489 23.2552 16.1221 23.362C16.1741 23.3945 16.2261 23.4271 16.2796 23.4606C16.5634 23.6346 16.8241 23.7722 17.1587 23.847C17.2086 23.8237 17.2585 23.8004 17.3099 23.7764C17.3971 23.4961 17.3948 23.2217 17.3946 22.9314C17.3946 22.8827 17.3947 22.834 17.3948 22.7838C17.3949 22.6211 17.3945 22.4584 17.3941 22.2958C17.394 22.1789 17.394 22.0621 17.3941 21.9453C17.3941 21.6285 17.3937 21.3117 17.3931 20.9948C17.3927 20.6636 17.3926 20.3324 17.3925 20.0012C17.3923 19.3741 17.3917 18.747 17.3909 18.1199C17.3901 17.406 17.3897 16.692 17.3893 15.978C17.3885 14.5095 17.3872 13.0409 17.3855 11.5723C17.2777 11.5268 17.1698 11.4815 17.0619 11.4362C17.0018 11.4109 16.9418 11.3857 16.8799 11.3596C16.6928 11.2823 16.6928 11.2823 16.4407 11.2108C16.2517 11.1491 16.2517 11.1491 16.1762 11.008C16.1263 11.008 16.0764 11.008 16.025 11.008C16.025 10.9614 16.025 10.9149 16.025 10.8669C15.9008 10.7477 15.7745 10.6304 15.6471 10.5142C15.1938 10.0515 14.9469 9.50776 14.8428 8.89387C14.8224 8.74639 14.8224 8.74639 14.7401 8.60949C14.7401 8.49192 14.7401 8.37435 14.7401 8.25677C14.7389 8.21837 14.7646 8.20708 14.7389 8.1831C14.7888 8.13654 14.7643 8.09311 14.8157 8.04514C14.8496 7.91964 14.8788 7.793 14.9054 7.66597C15.1078 6.88223 15.5434 6.25259 16.2517 5.78774C17.1226 5.30106 18.0708 5.14499 19.066 5.34243C19.7698 5.5651 20.3094 5.94804 20.8148 6.44826C20.9367 6.59586 20.8989 6.56059 21.0123 6.6664C21.0501 6.80749 21.1416 6.86902 21.1646 6.98698C21.2158 7.1122 21.2678 7.2371 21.3205 7.36175C21.6133 8.17551 21.5566 9.03181 21.1646 9.80874C20.6349 10.7177 19.9084 11.1272 18.8971 11.5018C18.7922 12.3288 18.8211 13.1564 18.8398 13.9873C18.8452 14.2331 18.8493 14.4788 18.8533 14.7246C18.8565 14.8807 18.8598 15.0368 18.8632 15.193C18.8643 15.2665 18.8654 15.34 18.8665 15.4158C18.8683 15.4835 18.87 15.5511 18.8718 15.6208C18.8737 15.7102 18.8737 15.7102 18.8756 15.8014C18.8836 15.9618 18.8836 15.9618 19.0483 16.0872C19.5012 16.0758 19.8869 15.8567 20.2812 15.6683C20.3548 15.6335 20.4284 15.5987 20.5042 15.5628C22.8027 14.4632 25.3226 13.0736 26.2263 10.6724C26.6006 9.57403 26.8109 8.56564 26.5546 7.42347C26.5411 7.36229 26.5276 7.30111 26.5137 7.23807C26.1155 5.51773 25.0003 4.03903 23.4235 3.07543C21.3975 1.8848 18.9648 1.55244 16.6108 1.76232ZM28.3922 7.17657C28.1852 7.4515 28.1015 7.72515 28.0506 8.05506C28.0394 8.1242 28.0282 8.19333 28.0167 8.26456C28.005 8.33765 27.9933 8.41074 27.9812 8.48604C27.8058 9.51898 27.5293 10.4777 27.0601 11.4313C27.0324 11.4895 27.0047 11.5476 26.9762 11.6076C26.2478 13.0605 24.9829 14.2117 23.5603 15.0761C23.4243 15.1587 23.2888 15.242 23.1533 15.3255C22.9743 15.4359 22.7952 15.5461 22.6159 15.6561C20.198 17.057 20.198 17.057 18.8484 19.2853C18.6976 19.9808 18.7146 20.6855 18.7206 21.3921C18.7224 21.6217 18.7221 21.8514 18.7216 22.081C18.722 22.2287 18.7226 22.3764 18.7232 22.524C18.7232 22.5918 18.7231 22.6597 18.723 22.7296C18.7275 23.1254 18.7771 23.4669 18.8971 23.847C19.1395 23.9195 19.2463 23.9291 19.4838 23.8338C19.5568 23.7916 19.6297 23.7494 19.7049 23.7059C19.785 23.6598 19.8651 23.6137 19.9476 23.5662C20.2127 23.4051 20.4725 23.239 20.7297 23.0671C20.9819 22.9009 21.2382 22.741 21.4953 22.5816C21.5441 22.5513 21.593 22.521 21.6433 22.4897C21.8632 22.3534 22.0833 22.2173 22.3034 22.0812C22.7805 21.7855 23.2533 21.4845 23.7245 21.1808C24.0641 20.9624 24.4061 20.7481 24.7501 20.5358C25.2007 20.2571 25.6437 19.9694 26.0843 19.6771C26.4778 19.4163 26.8736 19.1589 27.2704 18.9026C27.9407 18.4694 28.6085 18.0362 29.252 17.5686C29.3164 17.522 29.3808 17.4755 29.4471 17.4275C30.2552 16.8593 30.2552 16.8593 30.9148 16.1577C30.7199 15.8699 30.7199 15.8699 30.4802 15.6154C30.3857 15.5228 30.3857 15.5228 30.3857 15.3112C30.3615 15.2488 30.3372 15.1864 30.3122 15.1221C30.0873 14.4437 30.1636 13.6606 30.4967 13.0284C30.8969 12.3844 31.3651 12.0273 32.0485 11.6429C32.0068 11.2185 31.9104 10.8512 31.7509 10.4525C31.7281 10.3953 31.7053 10.3381 31.6817 10.2792C31.5021 9.84617 31.2924 9.43261 31.0565 9.02394C31.0257 8.96921 30.995 8.91448 30.9632 8.85809C30.7895 8.55584 30.9136 8.78272 30.7625 8.57109C30.6068 8.35319 30.7247 8.50055 30.6491 8.39841C30.5598 8.2778 30.6113 8.32419 30.5369 8.25677C30.4065 8.12126 30.2758 7.98612 30.1448 7.85115C30.0901 7.79413 30.0901 7.79413 30.0342 7.73596C29.5501 7.23258 29.5501 7.23258 28.8835 7.03548C28.6522 7.03861 28.5873 7.04722 28.3922 7.17657Z" fill="#103650"/>
</svg>
